Coordinates
version=1
nRows=7
nColumns=40
inDegrees=yes

Units are S.I. units (second, meters, Newtons, ...)
Angles are in degrees.

endheader
time	pelvis_tilt	pelvis_list	pelvis_rotation	pelvis_tx	pelvis_ty	pelvis_tz	hip_flexion_r	hip_adduction_r	hip_rotation_r	knee_angle_r	knee_angle_r_beta	ankle_angle_r	subtalar_angle_r	mtp_angle_r	hip_flexion_l	hip_adduction_l	hip_rotation_l	knee_angle_l	knee_angle_l_beta	ankle_angle_l	subtalar_angle_l	mtp_angle_l	lumbar_extension	lumbar_bending	lumbar_rotation	arm_flex_r	arm_add_r	arm_rot_r	elbow_flex_r	pro_sup_r	wrist_flex_r	wrist_dev_r	arm_flex_l	arm_add_l	arm_rot_l	elbow_flex_l	pro_sup_l	wrist_flex_l	wrist_dev_l
      0.31000000	     -1.53988061	      7.13218110	     -5.37597593	     -0.21768638	      0.95571931	     -1.05651797	     24.71899837	    -14.82479326	    -10.49787212	    -60.98974402	     -1.06447184	      3.34827223	    -17.88647620	     17.80890397	      3.40268603	     -6.77525536	     12.16627283	    -10.83238181	     -0.18906073	      4.10282470	      5.33448522	     -0.92338876	     -2.39967540	     -6.32454173	     -0.51937374	      2.77616186	    -10.50782947	    -14.88355171	     16.69312671	     89.95437384	      0.00000000	      0.00000000	      4.46671544	     16.99670469	     10.10960053	     19.93796553	     89.95437384	      0.00000000	      0.00000000
      0.32000000	     -1.33292387	      6.46691518	     -4.57482645	     -0.20666780	      0.95626350	     -1.05808650	     25.13763308	    -14.22584413	    -11.86723571	    -59.11263126	     -1.03171004	      3.65697346	    -17.60449720	     17.86719114	      2.18719247	     -6.19788949	     11.74800946	    -10.50815878	     -0.18340197	      4.47628266	      4.68951254	     -1.53764459	     -2.93621618	     -5.51058273	     -1.54209750	      2.23873449	    -10.69557209	    -15.55053618	     16.02554575	     89.95437384	      0.00000000	      0.00000000	      5.83927771	     17.43994837	     10.50480232	     21.07142689	     89.95437384	      0.00000000	      0.00000000
      0.33000000	     -1.35969758	      5.97141458	     -3.87945103	     -0.19599770	      0.95621350	     -1.05969706	     25.90261955	    -13.73585780	    -12.95622508	    -57.03621779	     -0.99546979	      3.96273015	    -17.21007196	     17.77929239	      1.29897713	     -5.76945647	     11.42224956	    -10.20488154	     -0.17810878	      4.78407524	      3.96115695	     -2.28914789	     -3.19585007	     -4.83499296	     -2.40762254	      1.72987329	    -10.94891782	    -16.01677661	     15.34038425	     89.95437384	      0.00000000	      0.00000000	      7.20627681	     17.88127003	     10.69876345	     22.19153120	     89.95437384	      0.00000000	      0.00000000
      0.34000000	     -1.38572907	      5.53099855	     -3.30512321	     -0.18519583	      0.95596266	     -1.06094352	     26.60061502	    -13.25221161	    -13.90657303	    -54.71064782	     -0.95488094	      4.20459220	    -16.69520462	     17.62194465	      0.39580125	     -5.35743336	     11.31009409	     -9.87748504	     -0.17239464	      4.86521485	      3.22295534	     -3.55335481	     -3.39366368	     -4.24328127	     -3.13772699	      1.21216572	    -11.13505716	    -16.96975807	     14.69321476	     89.95437384	      0.00000000	      0.00000000	      8.54619351	     18.33964086	     10.86645630	     23.30011401	     89.95437384	      0.00000000	      0.00000000
      0.35000000	     -1.70689403	      5.23186102	     -2.60287719	     -0.17456313	      0.95494880	     -1.06243095	     27.63230682	    -12.96551942	    -14.82918562	    -52.27721575	     -0.91240954	      4.34220776	    -16.11465289	     17.43888606	     -0.12590978	     -5.10833339	     10.79271599	     -9.64268347	     -0.16829658	      5.22668704	      2.79330211	     -3.92731621	     -3.22000637	     -3.75626755	     -4.03575101	      0.68083844	    -11.35975806	    -17.49931843	     14.05859143	     89.95437384	      0.00000000	      0.00000000	      9.64614002	     18.84578006	     10.81317228	     24.58149500	     89.95437384	      0.00000000	      0.00000000
      0.36000000	     -1.53777256	      4.69401573	     -1.93893938	     -0.16345427	      0.95466183	     -1.06347788	     27.77978345	    -12.43082876	    -15.91941533	    -49.36780176	     -0.86163069	      4.45255672	    -15.42761877	     17.26136977	     -1.21901554	     -4.55908818	     10.56049101	     -9.41496498	     -0.16432214	      5.57250115	      2.31272351	     -4.60323411	     -3.60693176	     -3.05911160	     -4.80916812	      0.14883963	    -11.58204769	    -18.29258085	     13.50747272	     89.95437384	      0.00000000	      0.00000000	     10.87623159	     19.32735211	     10.53018983	     25.82653804	     89.95437384	      0.00000000	      0.00000000
      0.37000000	     -1.95196478	      4.91539180	     -1.59760463	     -0.15267061	      0.95289470	     -1.06435842	     29.00880979	    -12.55320234	    -16.19603867	    -46.75950353	     -0.81610729	      4.62532821	    -14.83914253	     17.02967219	     -1.57122370	     -4.84714012	     10.79174433	     -9.26193996	     -0.16165135	      5.95500348	      2.13100174	     -4.71893513	     -3.22435552	     -3.19734091	     -5.31554060	     -0.69729456	    -11.76106401	    -18.36479681	     13.38346016	     89.95437384	      0.00000000	      0.00000000	     12.04329636	     19.85758579	     10.53982023	     26.88174787	     89.95437384	      0.00000000	      0.00000000
